<?xml version="1.0" encoding="iso-8859-1"?>
<!-- Generator: Adobe Illustrator 19.0.0, SVG Export Plug-In . SVG Version: 6.00 Build 0)  -->
<svg version="1.1" id="Capa_1" xmlns="http://www.w3.org/2000/svg"  x="0px" y="0px"
	 viewBox="0 0 512 512" style="enable-background:new 0 0 512 512;" xml:space="preserve">
<g>
	<path style="fill:#D1D4D1;" d="M353.103,282.483V88.276c0.003-9.366-3.717-18.349-10.339-24.971s-15.605-10.342-24.971-10.339
		H35.31c-9.366-0.003-18.348,3.717-24.971,10.339S-0.003,78.91,0,88.276V476.69c-0.003,9.366,3.717,18.348,10.339,24.971
		c6.623,6.622,15.605,10.342,24.971,10.339h317.793V282.483z"/>
	<path style="fill:#A5A5A4;" d="M256,52.966v26.483c-0.015,4.869-3.958,8.813-8.828,8.828H105.931
		c-4.869-0.015-8.813-3.958-8.828-8.828V52.966c-0.009-7.027,2.778-13.768,7.746-18.737s11.71-7.756,18.736-7.746h26.483
		C150.069,11.857,161.926,0,176.552,0c14.626,0,26.483,11.857,26.483,26.483h26.483c7.027-0.009,13.768,2.778,18.736,7.746
		C253.222,39.198,256.009,45.939,256,52.966z"/>
	<path style="fill:#71C285;" d="M44.138,132.414h105.931c4.875,0,8.828,3.952,8.828,8.828v88.276c0,4.875-3.952,8.828-8.828,8.828
		H44.138c-4.875,0-8.828-3.952-8.828-8.828v-88.276C35.31,136.366,39.263,132.414,44.138,132.414z"/>
	<g>
		<path style="fill:#FFFFFF;" d="M317.793,150.069H194.207c-4.875,0-8.828-3.952-8.828-8.828s3.952-8.828,8.828-8.828h123.586
			c4.875,0,8.828,3.952,8.828,8.828S322.668,150.069,317.793,150.069z"/>
		<path style="fill:#FFFFFF;" d="M317.793,185.379H194.207c-4.875,0-8.828-3.952-8.828-8.828s3.952-8.828,8.828-8.828h123.586
			c4.875,0,8.828,3.952,8.828,8.828S322.668,185.379,317.793,185.379z"/>
		<path style="fill:#FFFFFF;" d="M317.793,220.69H194.207c-4.875,0-8.828-3.952-8.828-8.828c0-4.875,3.952-8.828,8.828-8.828
			h123.586c4.875,0,8.828,3.952,8.828,8.828C326.621,216.737,322.668,220.69,317.793,220.69z"/>
	</g>
	<path style="fill:#A5A5A4;" d="M44.138,344.276h203.034v44.138H44.138c-4.875,0-8.828-3.952-8.828-8.828v-26.483
		C35.31,348.228,39.263,344.276,44.138,344.276z"/>
	<path style="fill:#FFFFFF;" d="M264.828,485.517H44.138c-4.875,0-8.828-3.952-8.828-8.828s3.952-8.828,8.828-8.828h220.69
		c4.875,0,8.828,3.952,8.828,8.828S269.703,485.517,264.828,485.517z"/>
	<g>
		<path style="fill:#CC4B4C;" d="M79.448,459.034c-2.342,0.003-4.588-0.928-6.241-2.586l-26.483-26.483
			c-3.394-3.456-3.369-9.001,0.056-12.426c3.425-3.425,8.97-3.45,12.426-0.056l26.483,26.483c2.524,2.525,3.279,6.321,1.913,9.619
			C86.236,456.883,83.018,459.034,79.448,459.034z"/>
		<path style="fill:#CC4B4C;" d="M52.966,459.034c-3.57-0.001-6.788-2.152-8.154-5.45c-1.366-3.298-0.611-7.094,1.913-9.619
			l26.483-26.483c3.456-3.394,9.001-3.369,12.426,0.056s3.45,8.97,0.056,12.426l-26.483,26.483
			C57.553,458.106,55.307,459.037,52.966,459.034z"/>
	</g>
	<path style="fill:#FFFFFF;" d="M79.448,220.69c-2.342,0.003-4.588-0.928-6.241-2.586l-17.655-17.655
		c-3.394-3.456-3.369-9.001,0.056-12.426c3.425-3.425,8.97-3.45,12.426-0.056l11.414,11.414l46.724-46.724
		c3.453-3.41,9.012-3.392,12.443,0.039s3.449,8.99,0.039,12.443l-52.966,52.966C84.036,219.761,81.79,220.692,79.448,220.69z"/>
	<path style="fill:#CB8252;" d="M247.172,300.138h247.172v194.207c0,9.751-7.904,17.655-17.655,17.655H264.828
		c-9.751,0-17.655-7.905-17.655-17.655V300.138z"/>
	<g>
		<path style="fill:#805333;" d="M238.345,282.483h264.828c4.875,0,8.828,3.952,8.828,8.828v17.655c0,4.875-3.952,8.828-8.828,8.828
			H238.345c-4.875,0-8.828-3.952-8.828-8.828V291.31C229.517,286.435,233.469,282.483,238.345,282.483z"/>
		<rect x="282.483" y="353.103" style="fill:#805333;" width="61.793" height="52.966"/>
	</g>
	<g>
		<path style="fill:#ECF0F1;" d="M459.034,370.759h-70.621c-4.875,0-8.828-3.952-8.828-8.828s3.952-8.828,8.828-8.828h70.621
			c4.875,0,8.828,3.952,8.828,8.828S463.91,370.759,459.034,370.759z"/>
		<path style="fill:#ECF0F1;" d="M459.034,406.069h-70.621c-4.875,0-8.828-3.952-8.828-8.828c0-4.875,3.952-8.828,8.828-8.828
			h70.621c4.875,0,8.828,3.952,8.828,8.828C467.862,402.117,463.91,406.069,459.034,406.069z"/>
		<path style="fill:#ECF0F1;" d="M379.586,485.517c-4.875,0-8.828-3.952-8.828-8.828v-22.828l-2.586,2.587
			c-3.453,3.41-9.012,3.392-12.443-0.039c-3.432-3.432-3.449-8.99-0.039-12.443l17.655-17.655c2.524-2.525,6.321-3.28,9.62-1.914
			s5.449,4.585,5.449,8.155v44.138C388.414,481.565,384.462,485.517,379.586,485.517z"/>
		<path style="fill:#ECF0F1;" d="M397.241,459.034c-2.342,0.003-4.588-0.928-6.241-2.586l-17.655-17.655
			c-3.394-3.456-3.369-9.001,0.056-12.426c3.425-3.425,8.97-3.45,12.426-0.056l17.655,17.655c2.524,2.525,3.279,6.321,1.913,9.619
			C404.029,456.883,400.811,459.034,397.241,459.034z"/>
		<path style="fill:#ECF0F1;" d="M441.379,485.517c-4.875,0-8.828-3.952-8.828-8.828v-22.828l-2.586,2.587
			c-3.453,3.41-9.012,3.392-12.443-0.039c-3.432-3.432-3.449-8.99-0.039-12.443l17.655-17.655c2.524-2.525,6.321-3.28,9.62-1.914
			s5.449,4.585,5.449,8.155v44.138C450.207,481.565,446.255,485.517,441.379,485.517z"/>
		<path style="fill:#ECF0F1;" d="M459.034,459.034c-2.342,0.003-4.588-0.928-6.241-2.586l-17.655-17.655
			c-3.394-3.456-3.369-9.001,0.056-12.426c3.425-3.425,8.97-3.45,12.426-0.056l17.655,17.655c2.524,2.525,3.279,6.321,1.913,9.619
			C465.822,456.883,462.604,459.034,459.034,459.034z"/>
	</g>
</g>
<g>
</g>
<g>
</g>
<g>
</g>
<g>
</g>
<g>
</g>
<g>
</g>
<g>
</g>
<g>
</g>
<g>
</g>
<g>
</g>
<g>
</g>
<g>
</g>
<g>
</g>
<g>
</g>
<g>
</g>
</svg>
