<?xml version="1.0" encoding="iso-8859-1"?>
<!-- Generator: Adobe Illustrator 19.0.0, SVG Export Plug-In . SVG Version: 6.00 Build 0)  -->
<svg version="1.1" id="Capa_1" xmlns="http://www.w3.org/2000/svg"  x="0px" y="0px"
	 viewBox="0 0 512 512" style="enable-background:new 0 0 512 512;" xml:space="preserve">
<path style="fill:#FD3C65;" d="M165,0C74.099,0,0,74.099,0,165c0,90.899,74.099,165,165,165c77.402,0,143.401-52.5,160.8-127.8
	c2.699-12.001,4.2-24.6,4.2-37.2C330,74.099,255.901,0,165,0z"/>
<path style="fill:#FD003A;" d="M330,165c0,12.599-1.501,25.199-4.2,37.2C308.401,277.5,242.402,330,165,330V0
	C255.901,0,330,74.099,330,165z"/>
<g>
	<path style="fill:#57555C;" d="M239.399,247.2c-2.999,2.999-6.599,4.501-10.499,4.501s-7.8-1.501-10.8-4.501
		c-14.099-14.4-32.702-22.2-52.8-22.2H165c-19.797,0-38.701,7.8-52.8,21.899c-5.999,5.7-15.3,5.7-21.299-0.3
		c-5.698-5.7-5.698-15.3,0-21C110.698,205.8,137.102,195,165,195h0.3c28.198,0,54.602,11.1,74.099,30.899
		C245.398,231.899,245.398,241.5,239.399,247.2z"/>
	<circle style="fill:#57555C;" cx="105" cy="135" r="15"/>
</g>
<g>
	<circle style="fill:#3C3A41;" cx="225" cy="135" r="15"/>
	<path style="fill:#3C3A41;" d="M239.399,247.2c-2.999,2.999-6.599,4.501-10.499,4.501s-7.8-1.501-10.8-4.501
		c-14.099-14.4-32.702-22.2-52.8-22.2H165v-30h0.3c28.198,0,54.602,11.1,74.099,30.899C245.398,231.899,245.398,241.5,239.399,247.2
		z"/>
</g>
<path style="fill:#FEDB41;" d="M347,182c-90.901,0-165,74.099-165,165c0,90.899,74.099,165,165,165s165-74.101,165-165
	C512,256.099,437.901,182,347,182z"/>
<path style="fill:#FCBF29;" d="M512,347c0,90.899-74.099,165-165,165V182C437.901,182,512,256.099,512,347z"/>
<g>
	<path style="fill:#57555C;" d="M421.099,406.099C400.701,426.799,374.001,437,347,437s-53.701-10.201-74.099-30.901
		c-5.999-5.7-5.999-15.3,0-21c5.698-5.999,15.3-5.999,20.999,0C308.599,399.8,327.8,407,347,407s38.401-7.2,53.101-21.901
		c5.698-5.999,15.3-5.999,20.999,0C427.098,390.799,427.098,400.399,421.099,406.099z"/>
	<circle style="fill:#57555C;" cx="287" cy="317" r="15"/>
</g>
<g>
	<circle style="fill:#3C3A41;" cx="407" cy="317" r="15"/>
	<path style="fill:#3C3A41;" d="M421.099,406.099C400.701,426.799,374.001,437,347,437v-30c19.2,0,38.401-7.2,53.101-21.901
		c5.698-5.999,15.3-5.999,20.999,0C427.098,390.799,427.098,400.399,421.099,406.099z"/>
</g>
<g>
</g>
<g>
</g>
<g>
</g>
<g>
</g>
<g>
</g>
<g>
</g>
<g>
</g>
<g>
</g>
<g>
</g>
<g>
</g>
<g>
</g>
<g>
</g>
<g>
</g>
<g>
</g>
<g>
</g>
</svg>
