<?xml version="1.0" encoding="iso-8859-1"?>
<!-- Generator: Adobe Illustrator 19.0.0, SVG Export Plug-In . SVG Version: 6.00 Build 0)  -->
<svg version="1.1" id="Capa_1" xmlns="http://www.w3.org/2000/svg" xmlns:xlink="http://www.w3.org/1999/xlink" x="0px" y="0px"
	 viewBox="0 0 512 512" style="enable-background:new 0 0 512 512;" xml:space="preserve">
<g transform="matrix(1.25 0 0 -1.25 0 45)">
	<path style="fill:#D99E82;" d="M409.6-94.844c0,51.86-50.46,94.06-113.778,96.472v0.239H113.778V1.627
		C50.46-0.785,0-42.984,0-94.844c0-21.174,8.499-40.687,22.756-56.616v-142.495c0-25.133,20.378-45.511,45.511-45.511h273.067
		c25.133,0,45.511,20.378,45.511,45.511v142.495C401.101-135.532,409.6-116.019,409.6-94.844"/>
	<path style="fill:#CC927A;" d="M386.844-168.527H216.178v17.067h170.667V-168.527z"/>
	<path style="fill:#FFE8B6;" d="M238.933-94.844c0,39.379-40.255,71.578-91.022,73.83c-1.877,0.079-26.533,0.125-28.444,0.125
		c-53.407,0-96.711-33.109-96.711-73.956c0-18.148,8.579-34.737,22.756-47.604v-140.129c0-18.853,15.281-34.133,34.133-34.133h102.4
		c18.853,0,34.133,15.281,34.133,34.133v140.186C230.331-129.524,238.933-112.969,238.933-94.844"/>
</g>
<g>
</g>
<g>
</g>
<g>
</g>
<g>
</g>
<g>
</g>
<g>
</g>
<g>
</g>
<g>
</g>
<g>
</g>
<g>
</g>
<g>
</g>
<g>
</g>
<g>
</g>
<g>
</g>
<g>
</g>
</svg>
